<?xml version="1.0" standalone="no"?><!DOCTYPE svg PUBLIC "-//W3C//DTD SVG 1.1//EN" "http://www.w3.org/Graphics/SVG/1.1/DTD/svg11.dtd"><svg t="1750814383985" class="icon" viewBox="0 0 1024 1024" version="1.1" xmlns="http://www.w3.org/2000/svg" p-id="7522" xmlns:xlink="http://www.w3.org/1999/xlink" width="128" height="128"><path d="M420.608 489.984a15.104 15.104 0 0 1 4.864 11.776 14.848 14.848 0 0 1-4.864 11.776 17.664 17.664 0 0 1-12.288 4.352h-44.288V665.6a15.104 15.104 0 0 1-5.376 12.032 18.176 18.176 0 0 1-13.056 5.12 17.664 17.664 0 0 1-13.056-5.12 15.872 15.872 0 0 1-5.12-12.032v-147.712h-44.032a16.64 16.64 0 0 1-12.288-4.608 14.848 14.848 0 0 1-4.864-11.776 14.848 14.848 0 0 1 4.864-11.52 17.152 17.152 0 0 1 12.288-4.352H409.6a16.384 16.384 0 0 1 11.008 4.352zM557.824 534.016a15.872 15.872 0 0 1 4.864 12.288V665.6a15.616 15.616 0 0 1-4.864 12.032 15.872 15.872 0 0 1-12.032 5.12 16.64 16.64 0 0 1-12.032-4.864 17.664 17.664 0 0 1-4.864-12.032 61.952 61.952 0 0 1-44.032 19.712 64.512 64.512 0 0 1-35.328-9.984 69.376 69.376 0 0 1-25.6-27.904 92.16 92.16 0 0 1 0-80.384 67.072 67.072 0 0 1 25.6-27.904 61.696 61.696 0 0 1 34.304-9.984 66.816 66.816 0 0 1 45.312 17.408 16.64 16.64 0 0 1 4.864-12.288 17.408 17.408 0 0 1 24.064 0zM518.912 640a55.04 55.04 0 0 0 0-67.328 36.864 36.864 0 0 0-29.952-13.568 36.352 36.352 0 0 0-29.44 13.568 51.2 51.2 0 0 0-11.52 33.536 51.2 51.2 0 0 0 11.264 33.792 37.632 37.632 0 0 0 29.696 13.312 38.4 38.4 0 0 0 29.952-13.312zM712.448 539.136a70.4 70.4 0 0 1 25.6 27.648 86.016 86.016 0 0 1 9.216 40.192 87.04 87.04 0 0 1-9.216 40.448 68.608 68.608 0 0 1-25.6 27.904 61.696 61.696 0 0 1-34.304 9.984 57.6 57.6 0 0 1-25.6-5.632 61.952 61.952 0 0 1-19.712-13.312v1.792a16.64 16.64 0 0 1-16.896 17.152 15.616 15.616 0 0 1-12.032-4.864 16.128 16.128 0 0 1-4.864-12.288v-176.64a16.64 16.64 0 0 1 4.864-12.288 17.408 17.408 0 0 1 24.064 0 16.64 16.64 0 0 1 4.864 12.288v58.624a55.296 55.296 0 0 1 18.688-14.592 53.248 53.248 0 0 1 25.6-6.4 64.512 64.512 0 0 1 35.328 9.984z m-9.984 102.4a51.2 51.2 0 0 0 11.52-33.792 51.2 51.2 0 0 0-11.264-33.536 40.192 40.192 0 0 0-59.648 0 55.04 55.04 0 0 0 0 67.328 37.632 37.632 0 0 0 29.952 13.568 37.12 37.12 0 0 0 29.44-15.104z" p-id="7523" fill="#7d7e80"></path><path d="M857.088 337.408V281.6a76.8 76.8 0 0 0-76.8-76.8H402.176a76.8 76.8 0 0 0-57.088-25.6H206.336a76.8 76.8 0 0 0-76.8 76.8v512a76.8 76.8 0 0 0 76.8 76.8h622.592a76.8 76.8 0 0 0 76.8-76.8V409.6a76.8 76.8 0 0 0-48.64-72.192z m-51.2-56.576v51.2h-153.6V281.6a76.8 76.8 0 0 0-4.608-25.6h132.608a25.6 25.6 0 0 1 25.6 25.6z m-230.4-25.6a25.6 25.6 0 0 1 25.6 25.6v51.2h-179.2V256z m279.04 512a25.6 25.6 0 0 1-25.6 25.6H206.336a25.6 25.6 0 0 1-25.6-25.6V256a25.6 25.6 0 0 1 25.6-25.6h138.752a25.6 25.6 0 0 1 25.6 25.6v102.4a25.6 25.6 0 0 0 25.6 25.6h432.64a25.6 25.6 0 0 1 25.6 25.6z" p-id="7524" fill="#7d7e80"></path></svg>