<?xml version="1.0" standalone="no"?><!DOCTYPE svg PUBLIC "-//W3C//DTD SVG 1.1//EN" "http://www.w3.org/Graphics/SVG/1.1/DTD/svg11.dtd"><svg t="1623305591010" class="icon" viewBox="0 0 1024 1024" version="1.1" xmlns="http://www.w3.org/2000/svg" p-id="15312" xmlns:xlink="http://www.w3.org/1999/xlink" width="48" height="48"><defs><style type="text/css"></style></defs><path d="M230.857143 649.142857h562.706286c83.145143 0 127.286857-42.422857 127.286857-125.568v-289.28c0-83.145143-44.141714-125.586286-127.268572-125.586286H230.838857c-79.286857 0-127.707429 42.422857-127.707428 125.568v289.28c0 83.163429 44.141714 125.586286 127.707428 125.586286z m-0.859429-64.292571c-38.144 0-57.856-20.132571-57.856-57.856V230.857143c0-37.723429 19.712-57.417143 57.856-57.417143h564.425143c37.723429 0 57.435429 19.712 57.435429 57.417143V526.994286c0 37.723429-19.712 57.856-57.417143 57.856z m431.140572 330.422857c44.580571 0 82.724571-28.708571 96.859428-68.571429h130.285715c17.572571 0 32.566857-14.994286 32.566857-34.267428 0-19.712-14.994286-34.724571-32.566857-34.724572h-130.285715a102.692571 102.692571 0 0 0-96.859428-68.132571 103.68 103.68 0 0 0-97.28 68.132571H137.856c-19.291429 0-34.706286 14.994286-34.706286 34.724572 0 19.273143 15.414857 34.285714 34.706286 34.285714h426.002286a103.625143 103.625143 0 0 0 97.28 68.571429z m0-52.699429a49.664 49.664 0 0 1-50.139429-50.139428c0-28.708571 21.851429-50.578286 50.139429-50.578286s50.139429 21.851429 50.139428 50.578286a49.664 49.664 0 0 1-50.139428 50.139428z" p-id="15313" fill="#7d7e80"></path></svg>
