<?xml version="1.0" standalone="no"?><!DOCTYPE svg PUBLIC "-//W3C//DTD SVG 1.1//EN" "http://www.w3.org/Graphics/SVG/1.1/DTD/svg11.dtd"><svg t="1623752177036" class="icon" viewBox="0 0 1024 1024" version="1.1" xmlns="http://www.w3.org/2000/svg" p-id="3585" xmlns:xlink="http://www.w3.org/1999/xlink" width="48" height="48"><defs><style type="text/css"></style></defs><path d="M512 104.152c219.381 0 397.201 177.87 397.201 397.226 0 219.381-177.82 397.201-397.201 397.201-219.381 0-397.201-177.82-397.201-397.201 0-219.381 177.82-397.201 397.201-397.201z m0 75.156c-177.87 0-322.045 144.2-322.045 322.07S334.13 823.423 512 823.423s322.045-144.175 322.045-322.045S689.87 179.333 512 179.333zM250.005 67.976a25.052 25.052 0 1 1 12.35 48.551c-55.465 14.13-91.915 49.253-111.28 107.825a25.052 25.052 0 0 1-47.575-15.708c24.652-74.555 74.155-122.254 146.505-140.668z m534.812 0a25.052 25.052 0 1 0-12.35 48.551c55.49 14.13 91.941 49.253 111.281 107.825a25.052 25.052 0 1 0 47.6-15.708c-24.652-74.555-74.155-122.254-146.53-140.668z" p-id="3586" fill="#7d7e80"></path><path d="M382.756 513.754l-1.002 2.83a25.052 25.052 0 0 0 17.662 31.065l94.672 25.278-27.808 182.028c-4.41 28.81 35.624 40.635 47.599 14.08l127.09-281.837 1.001-2.68a25.052 25.052 0 0 0-15.156-31.115l-79.516-29.461V244.719c0-27.357-37.628-34.898-48.175-9.645l-116.367 278.68z m114.438-144.075v71.724l0.176 3.107a25.052 25.052 0 0 0 16.158 20.367l70.722 26.18-40.835 90.488 3.583-23.224 0.275-2.906a25.052 25.052 0 0 0-18.563-25.077l-88.685-23.75 57.17-136.909zM288.936 809.945a25.052 25.052 0 0 1 37.503 33.069l-2.08 2.354-107.799 107.8a25.052 25.052 0 0 1-37.503-33.07l2.08-2.354 107.799-107.8z m393.243 0a25.052 25.052 0 0 1 33.069-2.08l2.355 2.08 107.799 107.799a25.052 25.052 0 0 1-33.069 37.503l-2.355-2.08L682.18 845.369a25.052 25.052 0 0 1 0-35.423z" p-id="3587" fill="#7d7e80"></path></svg>