<?xml version="1.0" standalone="no"?><!DOCTYPE svg PUBLIC "-//W3C//DTD SVG 1.1//EN" "http://www.w3.org/Graphics/SVG/1.1/DTD/svg11.dtd"><svg t="1750670748051" class="icon" viewBox="0 0 1408 1024" version="1.1" xmlns="http://www.w3.org/2000/svg" p-id="1264" xmlns:xlink="http://www.w3.org/1999/xlink" width="128" height="128"><path d="M57.506283 805.087958m57.506282 0l172.518849 0q57.506283 0 57.506282 57.506283l0 0q0 57.506283-57.506282 57.506283l-172.518849 0q-57.506283 0-57.506282-57.506283l0 0q0-57.506283 57.506282-57.506283Z" fill="#7d7e80" p-id="1265"></path><path d="M517.556545 805.087958m57.506282 0l115.012566 0q57.506283 0 57.506282 57.506283l0 0q0 57.506283-57.506282 57.506283l-115.012566 0q-57.506283 0-57.506282-57.506283l0 0q0-57.506283 57.506282-57.506283Z" fill="#7d7e80" p-id="1266"></path><path d="M920.100524 805.087958m57.506282 0l172.518849 0q57.506283 0 57.506282 57.506283l0 0q0 57.506283-57.506282 57.506283l-172.518849 0q-57.506283 0-57.506282-57.506283l0 0q0-57.506283 57.506282-57.506283Z" fill="#7d7e80" p-id="1267"></path><path d="M0 0m57.506283 0l287.531413 0q57.506283 0 57.506283 57.506283l0 632.56911q0 57.506283-57.506283 57.506282l-287.531413 0q-57.506283 0-57.506283-57.506282l0-632.56911q0-57.506283 57.506283-57.506283Z" fill="#7d7e80" p-id="1268"></path><path d="M460.050262 0m57.506283 0l230.02513 0q57.506283 0 57.506283 57.506283l0 632.56911q0 57.506283-57.506283 57.506282l-230.02513 0q-57.506283 0-57.506283-57.506282l0-632.56911q0-57.506283 57.506283-57.506283Z" fill="#7d7e80" p-id="1269"></path><path d="M862.594241 0m57.506283 0l287.531413 0q57.506283 0 57.506283 57.506283l0 632.56911q0 57.506283-57.506283 57.506282l-287.531413 0q-57.506283 0-57.506283-57.506282l0-632.56911q0-57.506283 57.506283-57.506283Z" fill="#7d7e80" p-id="1270"></path></svg>