<?xml version="1.0" standalone="no"?><!DOCTYPE svg PUBLIC "-//W3C//DTD SVG 1.1//EN" "http://www.w3.org/Graphics/SVG/1.1/DTD/svg11.dtd"><svg t="1750413511452" class="icon" viewBox="0 0 1316 1024" version="1.1" xmlns="http://www.w3.org/2000/svg" p-id="4555" xmlns:xlink="http://www.w3.org/1999/xlink" width="128" height="128"><path d="M285.198629 60.767086c-120.949029 0-216.502857 93.037714-216.502858 204.8v468.114285c0 111.762286 95.553829 204.8 216.502858 204.8h737.28c120.919771 0 216.502857-93.037714 216.502857-204.8v-468.114285c0-111.762286-95.583086-204.8-216.502857-204.8h-737.28z m-275.017143 204.8c0-146.753829 124.489143-263.314286 275.017143-263.314286h737.28c150.528 0 275.017143 116.560457 275.017142 263.314286v468.114285c0 146.753829-124.489143 263.314286-275.017142 263.314286h-737.28c-150.528 0-275.017143-116.560457-275.017143-263.314286v-468.114285z" p-id="4556" fill="#7d7e80"></path><path d="M516.271543 298.773943a29.257143 29.257143 0 0 1 29.227886-0.087772l307.2 175.542858a29.257143 29.257143 0 0 1 0 50.7904l-307.2 175.542857a29.257143 29.257143 0 0 1-43.797943-25.3952v-351.085715a29.257143 29.257143 0 0 1 14.570057-25.307428z m43.944228 75.717486v250.2656l218.989715-125.1328-218.989715-125.1328z" p-id="4557" fill="#7d7e80"></path></svg>