<?xml version="1.0" standalone="no"?><!DOCTYPE svg PUBLIC "-//W3C//DTD SVG 1.1//EN" "http://www.w3.org/Graphics/SVG/1.1/DTD/svg11.dtd"><svg t="1750660450897" class="icon" viewBox="0 0 1024 1024" version="1.1" xmlns="http://www.w3.org/2000/svg" p-id="87599" xmlns:xlink="http://www.w3.org/1999/xlink" width="128" height="128"><path d="M960 416L960 128c0-35.2-28.8-64-64-64l-768 0c-35.2 0-64 28.8-64 64l0 288c0 35.2 28.8 64 64 64L896 480c35.2 0 64-28.8 64-64z m-800 0c-19.2 0-32-12.8-32-32L128 160c0-19.2 12.8-32 32-32L864 128c19.2 0 32 12.8 32 32l0 224c0 19.2-12.8 32-32 32l-704 0zM960 896L960 608c0-35.2-28.8-64-64-64l-768 0c-35.2 0-64 28.8-64 64l0 288c0 35.2 28.8 64 64 64L896 960c35.2 0 64-28.8 64-64z m-800 0c-19.2 0-32-12.8-32-32L128 640c0-19.2 12.8-32 32-32L864 608c19.2 0 32 12.8 32 32l0 224c0 19.2-12.8 32-32 32l-704 0z" fill="#7d7e80" p-id="87600"></path></svg>