<svg t="1648878033336" class="icon" viewBox="0 0 1024 1024" version="1.1" xmlns="http://www.w3.org/2000/svg" p-id="2451" width="200" height="200"><path d="M563.2 329.955556a28.444444 28.444444 0 0 1 5.12 56.433777L563.2 386.844444H256a28.444444 28.444444 0 0 1-5.12-56.433777L256 329.955556h307.2zM460.8 534.755556a28.444444 28.444444 0 0 1 5.12 56.433777l-5.12 0.455111H256a28.444444 28.444444 0 0 1-5.12-56.433777L256 534.755556h204.8z" fill="#ffffff" p-id="2452"></path><path d="M673.905778 85.333333c78.961778 0 145.464889 51.484444 150.641778 119.466667l0.341333 8.533333V312.888889a28.444444 28.444444 0 0 1-56.433778 5.12L768 312.888889V213.333333c0-35.612444-36.295111-67.128889-84.821333-70.769777l-9.272889-0.341334H236.316444c-50.005333 0-89.258667 29.468444-93.696 64.512L142.222222 213.333333v597.333334c0 35.612444 36.295111 67.128889 84.821334 70.769777l9.272888 0.341334h113.777778a28.444444 28.444444 0 0 1 5.12 56.433778l-5.12 0.455111h-113.777778c-78.961778 0-145.464889-51.484444-150.641777-119.466667l-0.341334-8.533333V213.333333c0-69.233778 63.374222-123.505778 141.198223-127.715555l9.784888-0.284445h437.589334z" fill="#ffffff" p-id="2453"></path><path d="M597.162667 560.583111a28.444444 28.444444 0 0 1 49.777777 27.022222l-2.446222 4.551111-89.201778 133.688889a28.444444 28.444444 0 0 1-49.777777-27.022222l2.446222-4.551111 89.201778-133.688889z m131.982222-7.395555a28.444444 28.444444 0 0 1 36.181333 3.868444l3.185778 3.982222 87.381333 131.072a28.444444 28.444444 0 0 1-44.088889 35.555556l-3.242666-3.982222-87.381334-131.072a28.444444 28.444444 0 0 1 7.964445-39.424z" fill="#ffffff" p-id="2454"></path><path d="M682.666667 398.222222a113.777778 113.777778 0 1 1 0 227.555556 113.777778 113.777778 0 0 1 0-227.555556z m0 56.888889a56.888889 56.888889 0 1 0 0 113.777778 56.888889 56.888889 0 0 0 0-113.777778zM859.022222 682.666667a51.2 51.2 0 0 1 51.2 51.2v155.875555a20.48 20.48 0 0 1-20.48 20.48H475.591111a20.48 20.48 0 0 1-20.48-20.48V733.866667a51.2 51.2 0 0 1 51.2-51.2h352.711111z m-5.688889 56.888889H512v113.777777h341.333333v-113.777777z" p-id="2455"></path></svg>
